:FULLY-SPECIFIED
:FORCE-ALL-JOINTS-BE-3DOF
:DEGREES
146
root 8.53054 16.2512 -16.331 6.62173 9.36715 1.3055
lfemur 13.4859 7.07154 -14.8748
ltibia 31.5624 0 0
lfoot 9.59985 2.74312 0
ltoes -6.24429 0 0
rfemur -38.7076 1.69973 19.2533
rtibia 39.0632 0 0
rfoot -10.3954 -2.7914 0
rtoes -13.0563 0 0
lowerback -5.77905 -3.46913 -2.22268
upperback -1.52071 -4.54679 3.08781
thorax 2.05805 -2.28973 4.08926
lowerneck -20.0659 -6.22074 -14.2994
upperneck 16.8743 -7.26229 13.5148
head 9.70587 -2.8924 6.08046
lclavicle 3.79643e-14 -2.39884e-14 0
lhumerus -35.938 0.793596 87.614
lradius 18.4104 0 0
lwrist -12.7774 0 0
lhand -5.77516 -20.2019 0
lfingers 7.12502 0 0
lthumb 20.0473 8.76803 0
rclavicle 3.79643e-14 -2.39884e-14 0
rhumerus -47.4786 5.29019 -81.6854
rradius 28.4629 0 0
rwrist -15.5243 0 0
rhand -30.0723 -22.9087 0
rfingers 7.12502 0 0
rthumb -3.38727 -52.8633 0
147
root 8.51084 16.2512 -16.182 6.68065 9.44202 1.21084
lfemur 13.1374 7.12511 -14.6656
ltibia 31.7721 0 0
lfoot 9.78093 2.77225 0
ltoes -6.39152 0 0
rfemur -38.3768 1.66773 19.4431
rtibia 38.8188 0 0
rfoot -10.311 -2.63811 0
rtoes -12.9499 0 0
lowerback -5.75258 -3.43476 -2.15114
upperback -1.53265 -4.50683 3.10996
thorax 2.02778 -2.26843 4.0762
lowerneck -20.0313 -6.24094 -14.3208
upperneck 16.8015 -7.2939 13.566
head 9.682 -2.90435 6.09619
lclavicle 3.8416e-14 -2.42391e-14 0
lhumerus -36.3057 1.0777 87.6896
lradius 18.1911 0 0
lwrist -12.934 0 0
lhand -5.69243 -20.1541 0
lfingers 7.12502 0 0
lthumb 20.127 8.80997 0
rclavicle 3.8416e-14 -2.42391e-14 0
rhumerus -47.4128 5.26259 -81.6013
rradius 28.5498 0 0
rwrist -15.5509 0 0
rhand -30.1106 -22.9592 0
rfingers 7.12502 0 0
rthumb -3.42429 -52.913 0
148
root 8.49204 16.2515 -16.0342 6.73723 9.50973 1.11742
lfemur 12.7753 7.17345 -14.4665
ltibia 31.9694 0 0
lfoot 9.94116 2.80416 0
ltoes -6.53698 0 0
rfemur -38.0398 1.63891 19.6304
rtibia 38.5718 0 0
rfoot -10.2347 -2.4879 0
rtoes -12.8453 0 0
lowerback -5.72721 -3.39915 -2.08053
upperback -1.54365 -4.4651 3.13131
thorax 1.99897 -2.24629 4.06292
lowerneck -19.9963 -6.26042 -14.3412
upperneck 16.7309 -7.32469 13.6159
head 9.6586 -2.91604 6.11144
lclavicle 3.88199e-14 -2.44706e-14 0
lhumerus -36.6642 1.34349 87.7664
lradius 17.9866 0 0
lwrist -13.072 0 0
lhand -5.61703 -20.1107 0
lfingers 7.12502 0 0
lthumb 20.1996 8.84819 0
rclavicle 3.88199e-14 -2.44706e-14 0
rhumerus -47.3438 5.23925 -81.5205
rradius 28.6453 0 0
rwrist -15.5824 0 0
rhand -30.149 -23.0113 0
rfingers 7.12502 0 0
rthumb -3.46138 -52.9643 0
149
root 8.4742 16.2522 -15.8876 6.79138 9.57023 1.02542
lfemur 12.4005 7.21652 -14.2776
ltibia 32.154 0 0
lfoot 10.0805 2.83873 0
ltoes -6.68036 0 0
rfemur -37.6974 1.61329 19.8149
rtibia 38.3225 0 0
rfoot -10.1664 -2.34105 0
rtoes -12.7429 0 0
lowerback -5.70296 -3.36238 -2.01101
upperback -1.55372 -4.42171 3.15183
thorax 1.97167 -2.22337 4.04946
lowerneck -19.9609 -6.27914 -14.3607
upperneck 16.6626 -7.35459 13.6642
head 9.63572 -2.92744 6.12617
lclavicle 3.91759e-14 -2.46827e-14 0
lhumerus -37.0131 1.59062 87.844
lradius 17.797 0 0
lwrist -13.1911 0 0
lhand -5.54903 -20.0715 0
lfingers 7.12502 0 0
lthumb 20.2652 8.88267 0
rclavicle 3.91759e-14 -2.46827e-14 0
rhumerus -47.2718 5.22018 -81.4432
rradius 28.7489 0 0
rwrist -15.6185 0 0
rhand -30.1875 -23.0649 0
rfingers 7.12502 0 0
rthumb -3.49847 -53.017 0
150
root 8.45738 16.2531 -15.7423 6.843 9.62347 0.935032
lfemur 12.0141 7.25428 -14.0994
ltibia 32.3258 0 0
lfoot 10.1988 2.87587 0
ltoes -6.82137 0 0
rfemur -37.3503 1.5909 19.9961
rtibia 38.0717 0 0
rfoot -10.1062 -2.19786 0
rtoes -12.6427 0 0
lowerback -5.67987 -3.32455 -1.94271
upperback -1.56285 -4.37678 3.17149
thorax 1.94592 -2.19973 4.03585
lowerneck -19.9253 -6.29707 -14.3791
upperneck 16.5967 -7.38355 13.7108
head 9.61341 -2.93854 6.14037
lclavicle 3.94837e-14 -2.48752e-14 0
lhumerus -37.3515 1.81879 87.9223
lradius 17.6226 0 0
lwrist -13.2915 0 0
lhand -5.48848 -20.0367 0
lfingers 7.12502 0 0
lthumb 20.3235 8.91339 0
rclavicle 3.94837e-14 -2.48752e-14 0
rhumerus -47.1969 5.20537 -81.3694
rradius 28.8603 0 0
rwrist -15.6592 0 0
rhand -30.2258 -23.1197 0
rfingers 7.12502 0 0
rthumb -3.53548 -53.0711 0
151
root 8.44163 16.2544 -15.5983 6.89201 9.66941 0.846442
lfemur 11.617 7.28672 -13.932
ltibia 32.4844 0 0
lfoot 10.2962 2.91546 0
ltoes -6.95972 0 0
rfemur -36.9994 1.57174 20.1736
rtibia 37.8199 0 0
rfoot -10.0542 -2.05859 0
rtoes -12.5449 0 0
lowerback -5.65799 -3.28576 -1.87577
upperback -1.57102 -4.33042 3.19024
thorax 1.92177 -2.17543 4.02212
lowerneck -19.8894 -6.31418 -14.3966
upperneck 16.5333 -7.41152 13.7558
head 9.59171 -2.9493 6.15399
lclavicle 3.97431e-14 -2.50479e-14 0
lhumerus -37.6788 2.02768 88.0011
lradius 17.4636 0 0
lwrist -13.3729 0 0
lhand -5.43545 -20.0063 0
lfingers 7.12502 0 0
lthumb 20.3746 8.94029 0
rclavicle 3.97431e-14 -2.50479e-14 0
rhumerus -47.1193 5.19479 -81.2994
rradius 28.9791 0 0
rwrist -15.7043 0 0
rhand -30.2639 -23.1758 0
rfingers 7.12502 0 0
rthumb -3.57232 -53.1262 0
